# xmcd CD database file
#
# Track frame offsets:
#	150
#	30400
#	47745
#	66922
#	87282
#	99412
#	106555
#	124195
#	139125
#	155490
#	173647
#
# Disc length: 2735 seconds
#
# Revision: 0
# Processed by: cddbd v1.5.1PL0 Copyright (c) Steve Scherf et al.
# Submitted via: CDex 1.51
#
DISCID=850aad0b
DTITLE=徳永憲 - アイヴィー
DYEAR=1998
DGENRE=Rock
TTITLE0=詩人
TTITLE1=夜はとても優しくて
TTITLE2=優しいマペット
TTITLE3=オートマチック･ラブラブマシーン
TTITLE4=魂を救うだろう
TTITLE5=口封じ
TTITLE6=コーラの秘密
TTITLE7=プリントドレス
TTITLE8=ラッキー
TTITLE9=いつまでも生きていたい
TTITLE10=アイヴィー
EXTD=YEAR: 1998.12/18
EXTT0=
EXTT1=
EXTT2=
EXTT3=
EXTT4=
EXTT5=
EXTT6=
EXTT7=
EXTT8=
EXTT9=
EXTT10=
PLAYORDER=
